<?xml version="1.0" encoding="utf-8"?>
<!-- Generator: Adobe Illustrator 16.0.0, SVG Export Plug-In . SVG Version: 6.00 Build 0)  -->
<!DOCTYPE svg PUBLIC "-//W3C//DTD SVG 1.1//EN" "http://www.w3.org/Graphics/SVG/1.1/DTD/svg11.dtd">
<svg version="1.1" id="Layer_1" xmlns="http://www.w3.org/2000/svg" xmlns:xlink="http://www.w3.org/1999/xlink" x="0px" y="0px"
	 width="400px" height="250px" viewBox="0 0 400 250" enable-background="new 0 0 400 250" xml:space="preserve">
<path opacity="0.7" fill="#4FFF06" enable-background="new    " d="M107.196,56.189L84.845,79.573h55.214l22.351-23.384H107.196z"/>
<path fill="#28234A" d="M59.305,64.167c0.452-0.452,1.064-0.706,1.703-0.706h72.619c0.973,0,1.851,0.586,2.223,1.485
	c0.373,0.899,0.168,1.934-0.52,2.623l-20.939,20.965c-0.452,0.452-1.064,0.706-1.703,0.706h-72.62c-0.973,0-1.85-0.586-2.223-1.485
	c-0.373-0.899-0.167-1.934,0.521-2.622L59.305,64.167z M62.006,68.273L45.874,84.425h65.816l16.132-16.152H62.006z"/>
<g>
	<path d="M74.646,156.446c0,7.295,1.248,10.559,3.456,13.15c1.919,2.112,4.416,3.072,7.679,3.072c3.552,0,5.664-1.44,7.295-3.36
		c2.208-2.495,3.264-7.871,3.264-14.207c0-7.775,0-19.486-0.192-27.357c0-0.192-0.192-0.288-0.384-0.288l-6.72-0.288
		c0-2.592,0.096-5.472,0.096-8.063c3.552,0,8.543,0,12.767,0c4.032,0,7.967,0,11.423,0c0,2.592,0,5.375-0.096,8.063l-4.512,0.288
		l-0.288,26.206c0,11.52-3.456,18.719-7.104,22.271c-3.552,3.743-8.351,6.527-17.279,6.527c-8.447,0-14.399-1.632-19.198-5.951
		c-5.472-4.992-6.815-12.672-6.815-19.775v-28.798c0-0.288-0.096-0.575-0.48-0.575l-4.224-0.192c0-2.688,0-5.472,0.096-8.063
		c3.744,0,9.119,0,13.247,0c5.087,0,10.559,0,14.879,0c0,2.496,0,5.472-0.096,8.159l-6.527,0.192L74.646,156.446z"/>
	<path d="M117.462,149.055c0-2.688,0.096-5.472,0.096-7.872c4.799-0.384,19.006-2.783,19.583-2.783c0.192,0,0.192,0.096,0.192,0.191
		c0.48,2.017,0.864,4.032,1.344,6.048l0.48,0.096c9.312-5.76,11.423-6.432,15.839-6.432c4.128,0,8.063,3.648,9.983,6.912
		c1.824,2.976,2.208,5.951,2.208,8.543c0,5.472-0.288,13.439-0.384,19.583l4.8,0.191c0,2.592,0,5.472-0.096,7.968
		c-3.647,0-8.351,0-12.383,0c-4.128,0-8.64,0.096-11.999,0.096c0-2.592,0-5.472,0.096-7.967l3.84-0.192
		c0.192-0.096,0.288-0.192,0.384-0.479c0.096-3.84,0-9.216,0-12.959c-0.096-4.416-0.096-6.72-0.768-8.16
		c-0.96-1.823-2.208-2.111-3.648-2.111c-2.112,0-5.375,1.535-7.68,3.359c-0.096,5.567-0.288,14.783-0.288,20.255l4.127,0.288
		c0,2.592,0,5.375-0.096,7.871c-3.36,0-8.16,0-12,0c-4.032,0-8.927,0.096-12.671,0.096c0-2.592,0-5.472,0.096-7.967l4.704-0.192
		c0.288-0.096,0.384-0.288,0.384-0.479v-23.711L117.462,149.055z"/>
	<path d="M206.163,173.629c0,2.592-0.096,5.279-0.096,7.871c-4.704,0-11.135,0-16.511,0c-3.936,0-8.927,0.096-12.671,0.096
		c0-2.688,0.096-5.279,0.096-7.967l4.799-0.288c0.192,0,0.288-0.192,0.288-0.48c0-7.679,0-16.895-0.096-24.862
		c-1.632,0-4.224,0-6.623,0c0-2.88,0.096-5.951,0.192-8.543c1.824,0,4.032-0.096,5.664-0.192c0.384,0,0.576-0.191,0.576-0.672
		c0-8.447,1.344-12.095,5.664-16.415c6.144-6.24,11.807-7.295,16.511-7.295c4.607,0,8.352,0.768,10.463,1.632
		c0,3.648-2.783,9.6-4.703,10.848c-0.863-0.288-5.472-2.496-8.352-2.496c-1.536,0-2.592,0.288-3.072,1.632
		c-0.576,1.824-0.672,3.647-0.672,12.767c4.128,0,8.64,0,12.191-0.096c0,2.784-0.096,6.048-0.287,8.831c-3.264,0-8.256,0-11.904,0
		c0,6.72-0.096,18.239-0.096,25.343L206.163,173.629z"/>
	<path d="M263.953,180.636c-0.96,0.48-9.407,1.824-15.742,1.824c-1.44-1.056-2.784-2.496-4.416-4.8h-0.48
		c-7.871,4.512-9.695,4.8-13.535,4.8c-5.855,0-13.15-7.68-13.15-13.535c0-7.295,0.096-14.879,0.191-21.118l-4.319-0.192
		c0-2.592,0.096-5.375,0.192-7.871c3.936-0.192,18.143-0.576,19.391-0.672c0.191,0,0.287,0.191,0.287,0.384
		c0,6.72-0.287,15.167-0.287,22.175c0,2.783-0.097,6.144,1.151,8.255c1.151,1.824,2.496,1.92,3.743,1.92
		c1.633,0,3.937-0.672,5.76-2.016c0.097-6.527,0-16.127,0-21.887l-4.703-0.191c0.096-2.688,0.096-5.664,0.191-8.16
		c3.553-0.096,18.719-0.384,20.159-0.384c0.096,0,0.192,0.288,0.192,0.384c-0.097,10.176-0.289,21.694-0.289,32.734
		c0,0.384,0.097,0.575,0.385,0.575l5.375-0.191C264.049,175.164,263.953,178.141,263.953,180.636z"/>
	<path d="M268.467,173.725l4.512-0.192c0.289-0.096,0.385-0.191,0.385-0.384c0-7.775,0-16.702,0-24.19l-5.664-0.288
		c0-2.592,0.096-5.375,0.192-7.871c4.319-0.479,18.622-2.496,19.103-2.496c0.096,0,0.191,0,0.191,0.192
		c0.289,4.128,0.672,8.159,0.961,12.287l0.575,0.096c5.952-11.327,8.159-12.575,12.96-12.575c2.398,0,4.991,0.576,6.91,1.248
		c0,4.512-2.688,12.287-4.512,13.919c-0.863-0.191-3.743-0.96-6.047-0.96c-0.96,0-1.824,0.097-2.783,0.864
		c-1.729,1.439-3.168,3.168-4.992,6.624c-1.152,2.304-1.344,5.375-1.439,8.062c0,1.632,0,3.84,0,5.28l7.871,0.288
		c0,2.592,0,5.279-0.191,7.871c-4.032,0-9.984,0-14.496,0c-4.223,0-9.599,0.096-13.631,0.096
		C268.371,179.004,268.371,176.124,268.467,173.725z"/>
	<path d="M310.611,173.629l5.088-0.288c0.287,0,0.383-0.192,0.383-0.384c0-14.688,0-33.502,0-47.709l-6.527-0.288
		c0-2.688,0.096-5.567,0.192-8.063c5.279-0.576,20.927-2.592,21.886-2.592c0.192,0,0.289,0.096,0.289,0.384
		c0,15.935-0.289,40.797-0.385,58.652l5.568,0.288c0,2.592,0,5.375-0.097,7.871c-3.743,0-8.831,0-13.343,0
		c-4.031,0-9.119,0.096-13.151,0.096C310.515,179.004,310.611,176.124,310.611,173.629z"/>
</g>
</svg>
